REM DIRINDEX 1\2\5,1\2\6,1\2\7,1\2\8,1\3\9,1\3\10,1\3\11,1\4\12,1\4\13,1\4\14,1\4\15,1\4\16
REM DIRNAME folder01,folder02,folder03,folder04,folder05,folder06,folder07,folder08,folder09,folder10,folder11,folder12,folder13,folder14,folder15,folder16
TITLE ""
FILE "1200_2_sec01_0001_0015.mp3" MP3
  TRACK 01 AUDIO
    TITLE "0:"
    INDEX 01 00:00:00
  TRACK 02 AUDIO
    TITLE "11:cjc034_00001"
    INDEX 01 00:00:15
  TRACK 03 AUDIO
    TITLE "0:"
    INDEX 01 00:03:10
  TRACK 04 AUDIO
    TITLE "11:cjc034_00002"
    INDEX 01 00:04:17
  TRACK 05 AUDIO
    TITLE "0:"
    INDEX 01 00:08:62
  TRACK 06 AUDIO
    TITLE "11:cjc034_00003"
    INDEX 01 00:09:36
  TRACK 07 AUDIO
    TITLE "0:"
    INDEX 01 00:11:13
  TRACK 08 AUDIO
    TITLE "10:cjc034_00004"
    INDEX 01 00:12:16
  TRACK 09 AUDIO
    TITLE "0:"
    INDEX 01 00:13:28
  TRACK 10 AUDIO
    TITLE "9:cjc034_00005"
    INDEX 01 00:13:39
  TRACK 11 AUDIO
    TITLE "0:"
    INDEX 01 00:14:58
  TRACK 12 AUDIO
    TITLE "10:cjc034_00006"
    INDEX 01 00:15:40
  TRACK 13 AUDIO
    TITLE "0:"
    INDEX 01 00:16:55
  TRACK 14 AUDIO
    TITLE "9:cjc034_00007"
    INDEX 01 00:16:59
  TRACK 15 AUDIO
    TITLE "0:"
    INDEX 01 00:18:07
  TRACK 16 AUDIO
    TITLE "10:cjc034_00008"
    INDEX 01 00:18:62
  TRACK 17 AUDIO
    TITLE "0:"
    INDEX 01 00:19:60
  TRACK 18 AUDIO
    TITLE "9:cjc034_00009"
    INDEX 01 00:19:69
  TRACK 19 AUDIO
    TITLE "0:"
    INDEX 01 00:21:02
  TRACK 20 AUDIO
    TITLE "10:cjc034_00010"
    INDEX 01 00:21:60
  TRACK 21 AUDIO
    TITLE "0:"
    INDEX 01 00:22:60
  TRACK 22 AUDIO
    TITLE "9:cjc034_00011"
    INDEX 01 00:22:64
  TRACK 23 AUDIO
    TITLE "0:"
    INDEX 01 00:24:02
  TRACK 24 AUDIO
    TITLE "10:cjc034_00012"
    INDEX 01 00:24:61
  TRACK 25 AUDIO
    TITLE "0:"
    INDEX 01 00:25:70
  TRACK 26 AUDIO
    TITLE "9:cjc034_00013"
    INDEX 01 00:26:09
  TRACK 27 AUDIO
    TITLE "0:"
    INDEX 01 00:27:06
  TRACK 28 AUDIO
    TITLE "10:cjc034_00014"
    INDEX 01 00:27:63
  TRACK 29 AUDIO
    TITLE "0:"
    INDEX 01 00:29:70
  TRACK 30 AUDIO
    TITLE "9:cjc034_00015"
    INDEX 01 00:30:08
  TRACK 31 AUDIO
    TITLE "0:"
    INDEX 01 00:31:10
  TRACK 32 AUDIO
    TITLE "10:cjc034_00016"
    INDEX 01 00:31:65
  TRACK 33 AUDIO
    TITLE "0:"
    INDEX 01 00:32:58
  TRACK 34 AUDIO
    TITLE "9:cjc034_00017"
    INDEX 01 00:32:62
  TRACK 35 AUDIO
    TITLE "0:"
    INDEX 01 00:33:66
  TRACK 36 AUDIO
    TITLE "10:cjc034_00018"
    INDEX 01 00:34:49
  TRACK 37 AUDIO
    TITLE "0:"
    INDEX 01 00:35:41
  TRACK 38 AUDIO
    TITLE "9:cjc034_00019"
    INDEX 01 00:35:43
  TRACK 39 AUDIO
    TITLE "0:"
    INDEX 01 00:36:46
  TRACK 40 AUDIO
    TITLE "10:cjc034_00020"
    INDEX 01 00:37:28
  TRACK 41 AUDIO
    TITLE "0:"
    INDEX 01 00:39:51
  TRACK 42 AUDIO
    TITLE "9:cjc034_00021"
    INDEX 01 00:39:54
  TRACK 43 AUDIO
    TITLE "0:"
    INDEX 01 00:40:58
  TRACK 44 AUDIO
    TITLE "10:cjc034_00022"
    INDEX 01 00:41:40
  TRACK 45 AUDIO
    TITLE "0:"
    INDEX 01 00:42:43
  TRACK 46 AUDIO
    TITLE "9:cjc034_00023"
    INDEX 01 00:42:45
  TRACK 47 AUDIO
    TITLE "0:"
    INDEX 01 00:43:46
  TRACK 48 AUDIO
    TITLE "10:cjc034_00024"
    INDEX 01 00:46:25
  TRACK 49 AUDIO
    TITLE "0:"
    INDEX 01 00:47:30
  TRACK 50 AUDIO
    TITLE "9:cjc034_00025"
    INDEX 01 00:47:32
  TRACK 51 AUDIO
    TITLE "0:"
    INDEX 01 00:48:42
  TRACK 52 AUDIO
    TITLE "10:cjc034_00026"
    INDEX 01 00:51:15
  TRACK 53 AUDIO
    TITLE "0:"
    INDEX 01 00:52:00
  TRACK 54 AUDIO
    TITLE "9:cjc034_00027"
    INDEX 01 00:52:04
  TRACK 55 AUDIO
    TITLE "0:"
    INDEX 01 00:53:15
  TRACK 56 AUDIO
    TITLE "10:cjc034_00028"
    INDEX 01 00:54:07
  TRACK 57 AUDIO
    TITLE "0:"
    INDEX 01 00:55:26
  TRACK 58 AUDIO
    TITLE "9:cjc034_00029"
    INDEX 01 00:55:28
  TRACK 59 AUDIO
    TITLE "0:"
    INDEX 01 00:56:39
  TRACK 60 AUDIO
    TITLE "10:cjc034_00030"
    INDEX 01 00:57:23
  TRACK 61 AUDIO
    TITLE "0:"
    INDEX 01 00:58:36
  TRACK 62 AUDIO
    TITLE "9:cjc034_00031"
    INDEX 01 00:58:40
  TRACK 63 AUDIO
    TITLE "0:"
    INDEX 01 00:59:49
  TRACK 64 AUDIO
    TITLE "10:cjc034_00032"
    INDEX 01 01:00:33
  TRACK 65 AUDIO
    TITLE "0:"
    INDEX 01 01:01:33
  TRACK 66 AUDIO
    TITLE "9:cjc034_00033"
    INDEX 01 01:01:42
  TRACK 67 AUDIO
    TITLE "0:"
    INDEX 01 01:02:46
